<mxfile host="Electron" agent="Mozilla/5.0 (Macintosh; Intel Mac OS X 10_15_7) AppleWebKit/537.36 (KHTML, like Gecko) draw.io/24.7.5 Chrome/126.0.6478.183 Electron/31.3.0 Safari/537.36" version="24.7.5">
  <diagram name="Page-1" id="fzigwdsPvLUFHeypnSTY">
    <mxGraphModel dx="1026" dy="658" grid="1" gridSize="10" guides="1" tooltips="1" connect="1" arrows="1" fold="1" page="1" pageScale="1" pageWidth="850" pageHeight="1100" math="0" shadow="0">
      <root>
        <mxCell id="0" />
        <mxCell id="1" parent="0" />
        <mxCell id="axlTO_v4iN-88vhWcISZ-1" value="2" style="ellipse;whiteSpace=wrap;html=1;" vertex="1" parent="1">
          <mxGeometry x="230" y="240" width="50" height="50" as="geometry" />
        </mxCell>
        <mxCell id="axlTO_v4iN-88vhWcISZ-11" style="rounded=0;orthogonalLoop=1;jettySize=auto;html=1;exitX=1;exitY=1;exitDx=0;exitDy=0;entryX=0.5;entryY=0;entryDx=0;entryDy=0;" edge="1" parent="1" source="axlTO_v4iN-88vhWcISZ-2" target="axlTO_v4iN-88vhWcISZ-9">
          <mxGeometry relative="1" as="geometry" />
        </mxCell>
        <mxCell id="axlTO_v4iN-88vhWcISZ-12" style="rounded=0;orthogonalLoop=1;jettySize=auto;html=1;exitX=0;exitY=1;exitDx=0;exitDy=0;entryX=0.5;entryY=0;entryDx=0;entryDy=0;" edge="1" parent="1" source="axlTO_v4iN-88vhWcISZ-2" target="axlTO_v4iN-88vhWcISZ-3">
          <mxGeometry relative="1" as="geometry" />
        </mxCell>
        <mxCell id="axlTO_v4iN-88vhWcISZ-2" value="5" style="ellipse;whiteSpace=wrap;html=1;" vertex="1" parent="1">
          <mxGeometry x="360" y="70" width="50" height="50" as="geometry" />
        </mxCell>
        <mxCell id="axlTO_v4iN-88vhWcISZ-13" style="rounded=0;orthogonalLoop=1;jettySize=auto;html=1;exitX=0;exitY=1;exitDx=0;exitDy=0;entryX=0.5;entryY=0;entryDx=0;entryDy=0;" edge="1" parent="1" source="axlTO_v4iN-88vhWcISZ-3" target="axlTO_v4iN-88vhWcISZ-1">
          <mxGeometry relative="1" as="geometry" />
        </mxCell>
        <mxCell id="axlTO_v4iN-88vhWcISZ-14" style="rounded=0;orthogonalLoop=1;jettySize=auto;html=1;exitX=1;exitY=1;exitDx=0;exitDy=0;entryX=0.5;entryY=0;entryDx=0;entryDy=0;" edge="1" parent="1" source="axlTO_v4iN-88vhWcISZ-3" target="axlTO_v4iN-88vhWcISZ-4">
          <mxGeometry relative="1" as="geometry" />
        </mxCell>
        <mxCell id="axlTO_v4iN-88vhWcISZ-3" value="8" style="ellipse;whiteSpace=wrap;html=1;" vertex="1" parent="1">
          <mxGeometry x="290" y="160" width="50" height="50" as="geometry" />
        </mxCell>
        <mxCell id="axlTO_v4iN-88vhWcISZ-15" style="rounded=0;orthogonalLoop=1;jettySize=auto;html=1;exitX=0;exitY=1;exitDx=0;exitDy=0;entryX=0.5;entryY=0;entryDx=0;entryDy=0;" edge="1" parent="1" source="axlTO_v4iN-88vhWcISZ-4" target="axlTO_v4iN-88vhWcISZ-5">
          <mxGeometry relative="1" as="geometry" />
        </mxCell>
        <mxCell id="axlTO_v4iN-88vhWcISZ-4" value="7" style="ellipse;whiteSpace=wrap;html=1;" vertex="1" parent="1">
          <mxGeometry x="350" y="240" width="50" height="50" as="geometry" />
        </mxCell>
        <mxCell id="axlTO_v4iN-88vhWcISZ-16" style="rounded=0;orthogonalLoop=1;jettySize=auto;html=1;exitX=0;exitY=1;exitDx=0;exitDy=0;entryX=0.5;entryY=0;entryDx=0;entryDy=0;" edge="1" parent="1" source="axlTO_v4iN-88vhWcISZ-5" target="axlTO_v4iN-88vhWcISZ-6">
          <mxGeometry relative="1" as="geometry" />
        </mxCell>
        <mxCell id="axlTO_v4iN-88vhWcISZ-17" style="rounded=0;orthogonalLoop=1;jettySize=auto;html=1;exitX=1;exitY=1;exitDx=0;exitDy=0;entryX=0.5;entryY=0;entryDx=0;entryDy=0;" edge="1" parent="1" source="axlTO_v4iN-88vhWcISZ-5" target="axlTO_v4iN-88vhWcISZ-7">
          <mxGeometry relative="1" as="geometry" />
        </mxCell>
        <mxCell id="axlTO_v4iN-88vhWcISZ-5" value="6" style="ellipse;whiteSpace=wrap;html=1;" vertex="1" parent="1">
          <mxGeometry x="290" y="330" width="50" height="50" as="geometry" />
        </mxCell>
        <mxCell id="axlTO_v4iN-88vhWcISZ-6" value="5" style="ellipse;whiteSpace=wrap;html=1;" vertex="1" parent="1">
          <mxGeometry x="230" y="420" width="50" height="50" as="geometry" />
        </mxCell>
        <mxCell id="axlTO_v4iN-88vhWcISZ-7" value="7" style="ellipse;whiteSpace=wrap;html=1;" vertex="1" parent="1">
          <mxGeometry x="340" y="420" width="50" height="50" as="geometry" />
        </mxCell>
        <mxCell id="axlTO_v4iN-88vhWcISZ-8" value="3" style="ellipse;whiteSpace=wrap;html=1;" vertex="1" parent="1">
          <mxGeometry x="410" y="330" width="50" height="50" as="geometry" />
        </mxCell>
        <mxCell id="axlTO_v4iN-88vhWcISZ-9" value="3" style="ellipse;whiteSpace=wrap;html=1;" vertex="1" parent="1">
          <mxGeometry x="425" y="160" width="50" height="50" as="geometry" />
        </mxCell>
        <mxCell id="axlTO_v4iN-88vhWcISZ-18" style="rounded=0;orthogonalLoop=1;jettySize=auto;html=1;exitX=1;exitY=1;exitDx=0;exitDy=0;entryX=0.5;entryY=0;entryDx=0;entryDy=0;" edge="1" parent="1" source="axlTO_v4iN-88vhWcISZ-4" target="axlTO_v4iN-88vhWcISZ-8">
          <mxGeometry relative="1" as="geometry" />
        </mxCell>
      </root>
    </mxGraphModel>
  </diagram>
</mxfile>
